# xmcd
#
# Track frame offsets: 
#        182
#        23035
#        49102
#        76927
#        99375
#        114987
#        149587
#        165195
#        177842
#        208982
#        219620
#        229917
#        241250
#
# Disc length: 3360 seconds
#
# Revision: 5
# Processed by: cddbd v1.5.2PL0 Copyright (c) Steve Scherf et al.
# Submitted via: ExactAudioCopy v0.99pb4
#
DISCID=aa0d1e0d
DTITLE=B.B. King - The King Of The Blues
DYEAR=1980
DGENRE=Blues
TTITLE0=The Thrill Is Gone
TTITLE1=Guess Who
TTITLE2=Payin' The Cost To Be The Boss
TTITLE3=Everyday I Have The Blues
TTITLE4=The Letter
TTITLE5=Sweet Sixteen
TTITLE6=How Blue Can You Get?
TTITLE7=Please Love Me
TTITLE8=Outside Help
TTITLE9=Recession Blues
TTITLE10=Don't Keep Me Waiting
TTITLE11=Tickle Britches
TTITLE12=Don't Break Your Promise
EXTD=YEAR: 1980
EXTT0=
EXTT1=
EXTT2=
EXTT3=
EXTT4=
EXTT5=
EXTT6=
EXTT7=
EXTT8=
EXTT9=
EXTT10=
EXTT11=
EXTT12=
PLAYORDER=
